<svg id="Layer_1" data-name="Layer 1" xmlns="http://www.w3.org/2000/svg" viewBox="0 0 166.17 180.49"><defs><style>.cls-1{fill:#fff;}</style></defs><path class="cls-1" d="M156.6,110.61c-.2,0-.23.14-.27.3-.42,1.44-.82,2.87-1.32,4.28-.6,1.65-1.22,3.29-1.95,4.88-.42.92-.8,1.86-1.26,2.76-.89,1.73-1.83,3.45-2.84,5.12a77.86,77.86,0,0,1-4.66,6.85c-.82,1.08-1.68,2.13-2.57,3.16a70.48,70.48,0,0,1-5.07,5.44c-1.21,1.18-2.47,2.3-3.75,3.4a62.86,62.86,0,0,1-6.56,4.94c-1.85,1.22-3.76,2.34-5.72,3.4a68.69,68.69,0,0,1-7.7,3.55,71.86,71.86,0,0,1-7.57,2.46c-2.3.63-4.63,1.12-7,1.56-1.76.33-3.53.6-5.3.85s-3.26.41-4.88.62c-.58.08-1.18,0-1.76.15-.13,0-.27,0-.35.14h-7.8a1.41,1.41,0,0,0-.92-.24,22,22,0,0,1-3.14-.32,14.55,14.55,0,0,1-2.47-.23,5.51,5.51,0,0,0-1.8-.28,1.51,1.51,0,0,1-1.35-.82,1.57,1.57,0,0,1,.17-1.57,1.18,1.18,0,0,1,1.23-.48c1.1.14,2.2.38,3.3.47,1.42.13,2.82.35,4.24.46,2.4.19,4.79.09,7.18.09,1,0,2.1-.13,3.14-.21s1.92-.23,2.87-.32,1.78-.23,2.66-.39c2.2-.4,4.39-.81,6.55-1.34,2.68-.66,5.38-1.26,8-2.14,1.69-.56,3.35-1.18,5-1.88,1.82-.78,3.63-1.57,5.38-2.5a76.43,76.43,0,0,0,7.22-4.08,47.76,47.76,0,0,0,4.94-3.81c1-.86,1.9-1.77,2.88-2.6a42.84,42.84,0,0,0,3.59-3.67c1.56-1.68,3-3.47,4.44-5.28a64.14,64.14,0,0,0,5.18-7.68c1-1.77,1.9-3.61,2.76-5.46a87.54,87.54,0,0,0,3.25-8.27c.36-1,.65-2.09,1-3.13a1.65,1.65,0,0,1,2.24-1.11c.43.15.56.51.78.82v1.59c-.14.08-.14.17,0,.26Z"/><path class="cls-1" d="M82.78,156c1.38,0,2.76,0,4.14-.11,1-.09,2.1-.18,3.14-.33,1.85-.29,3.7-.63,5.55-1a86.51,86.51,0,0,0,9.09-2.33,71.68,71.68,0,0,0,7-2.63,53.1,53.1,0,0,0,5.61-2.77,74.11,74.11,0,0,0,6.24-4.14,64.75,64.75,0,0,0,7.44-6.37c1-1.05,2.1-2.13,3.07-3.26.62-.74,1.28-1.45,1.87-2.21,1.2-1.57,2.35-3.17,3.42-4.83,1.3-2,2.54-4.11,3.69-6.23a52,52,0,0,0,4.05-9.78,7.4,7.4,0,0,0,.52-2.69,2.82,2.82,0,0,0-1.23-2.28,3.72,3.72,0,0,0-2.36-.66,2.1,2.1,0,0,0-1.94,1.12,7.69,7.69,0,0,0-.68,1.56c-.51,1.55-1,3.1-1.61,4.6a56.4,56.4,0,0,1-2.71,5.85c-.59,1.1-1.2,2.2-1.87,3.26a64.29,64.29,0,0,1-7.25,9.5,59.89,59.89,0,0,1-5.54,5.26,57,57,0,0,1-5,3.74,64.25,64.25,0,0,1-8.36,4.72,77.38,77.38,0,0,1-7.32,3c-1.51.53-3,1-4.58,1.43a45.09,45.09,0,0,1-4.73,1.11,53.26,53.26,0,0,1-5.33.71c-1.31.09-2.62.25-3.93.24s-2.8,0-4.2,0c-1.56,0-3.12-.11-4.67-.16-.55,0-1.09-.16-1.63-.2-1.08-.07-2-.6-3.11-.77A46.57,46.57,0,0,1,63,147.73,62.09,62.09,0,0,1,48.33,141a59.91,59.91,0,0,1-9.39-7.39,69.3,69.3,0,0,1-5.17-5.53A61.29,61.29,0,0,1,30,123.17a63.79,63.79,0,0,1-4.41-7.48c-.12-.24-.19-.51-.44-.65a2.07,2.07,0,0,1-1-1.32,1.29,1.29,0,0,0-.18-.35,1.69,1.69,0,0,0-2.5-.54,3.1,3.1,0,0,0-.84,2.58,34.39,34.39,0,0,0,2.67,6.36A7.31,7.31,0,0,0,25.07,124a8.54,8.54,0,0,1,2.43,3.21,11.12,11.12,0,0,1,.74,2.38c.11.46.24.6.66.56a1.2,1.2,0,0,1,1.19.66,6,6,0,0,0,.72.94,2.43,2.43,0,0,1,.71,1.38c.05.37.17.52.53.48a.54.54,0,0,1,.5.28c.57.72,1.2,1.4,1.8,2.09a38.63,38.63,0,0,0,4.11,4,12.77,12.77,0,0,1,2.69,2.5c.06.08.17.2.25.2a.92.92,0,0,1,.86.56c.06.12.24.19.37.27l1.42.95a59.1,59.1,0,0,0,6.85,4.18A67,67,0,0,0,58,151.71a107.72,107.72,0,0,0,10.5,3.22,36.57,36.57,0,0,0,6.75.94c1.64.11,3.29,0,4.94.13C81.06,156.08,81.92,156,82.78,156Z"/><path class="cls-1" d="M80.31,18.62c-1.68,0-3.18.12-4.69.23-1,.08-2,.17-3,.33-1.32.21-2.63.44-3.94.73a57.42,57.42,0,0,0-8.12,2.43c-1.87.7-3.71,1.46-5.54,2.25a15.26,15.26,0,0,0-3.37,1.65,2.27,2.27,0,0,1-.89.41,4.55,4.55,0,0,0-1.51.75,21.44,21.44,0,0,0-1.82,1.15.9.9,0,0,1-.55.22.65.65,0,0,0-.35.15C45.08,30.06,43.47,31,42,32.07a47.65,47.65,0,0,0-5,4.16c-1.46,1.43-3,2.82-4.28,4.39-.62.74-1.28,1.44-1.88,2.19C29.89,44,29,45.16,28.11,46.37c-1.56,2.2-3.06,4.45-4.46,6.75a3.85,3.85,0,0,0-.57,2.19,2.28,2.28,0,0,0,2.52,2A2.81,2.81,0,0,0,27.77,56c.61-1,1.22-2,1.85-2.95a66.65,66.65,0,0,1,4.74-6.47q1.76-2.13,3.66-4.14a52.5,52.5,0,0,1,3.84-3.61c1.36-1.17,2.79-2.25,4.25-3.31a54.2,54.2,0,0,1,7.58-4.62c1.23-.63,2.52-1.15,3.78-1.71a63.34,63.34,0,0,1,7.91-2.88,49.52,49.52,0,0,1,10.37-1.87c1.33-.09,2.67-.2,4-.17a17,17,0,0,0,1.9.14,12.76,12.76,0,0,1,2.69.16c1.62.19,3.24.42,4.85.74a60.77,60.77,0,0,1,9,2.49,69.84,69.84,0,0,1,9,4c2.5,1.35,4.92,2.82,7.28,4.38,1.39.92,2.74,1.89,4.11,2.85A57.56,57.56,0,0,1,126,45.21l1.49,1.49a2.61,2.61,0,0,0,3,.48,4.58,4.58,0,0,0,1.42-1.24,2.86,2.86,0,0,0-.32-3.72c-1.44-1.35-2.88-2.7-4.39-4a57,57,0,0,0-4.79-3.69c-2.32-1.59-4.71-3-7.14-4.47q-2.64-1.54-5.32-3c-1.58-.87-3.18-1.7-4.82-2.45-2.18-1-4.38-1.93-6.64-2.71a61.94,61.94,0,0,0-9.08-2.4A49.1,49.1,0,0,0,84,18.78,22.62,22.62,0,0,0,80.31,18.62Z"/><path class="cls-1" d="M17.29,86.87a22.51,22.51,0,0,0,.24,4.1,19.24,19.24,0,0,0,1.53,5.22c.71,1.55,1.54,3.06,2.22,4.63a5.18,5.18,0,0,0,1.58,2c.31.26.51.22.63-.18a5.06,5.06,0,0,1,1.25-2.21,1.51,1.51,0,0,0,.19-2c-.84-1.68-1.57-3.43-2.28-5.17a15.64,15.64,0,0,1-1.13-5.77,18.74,18.74,0,0,1,.65-5.06A19.87,19.87,0,0,1,28.72,71.5a35.45,35.45,0,0,1,3.36-2.64,2.06,2.06,0,0,0,1.06-1.57.54.54,0,0,1,.22-.39c.2-.15.39-.13.5.08a3.69,3.69,0,0,1,.43,1c.22,1.27.38,2.55.56,3.83.11.84.18,1.69.31,2.53.16,1,.26,2,.33,3,0,.74.13,1.49.19,2.22s0,1.23.12,1.84A25.28,25.28,0,0,1,36,84c.06.81.11,1.62.19,2.42.13,1.38.19,2.75.33,4.12.08.83.16,1.66.3,2.47a9.78,9.78,0,0,0,.76,2.31c.16.36.37.39.65.11a.41.41,0,0,0,.07-.11,1.31,1.31,0,0,1,1.31-.59,5,5,0,0,0,1.44-.13.7.7,0,0,0,.58-.92,9.07,9.07,0,0,0-.29-1.14A1.18,1.18,0,0,0,41,92c-.51-.38-.56-.54-.26-1.11a2.52,2.52,0,0,0,.24-1.14c.07-1.34-.19-2.67-.15-4a.69.69,0,0,0,0-.2A21.58,21.58,0,0,1,40.55,83c-.13-.91-.23-1.83-.35-2.73s-.33-2.08-.46-3.12-.18-2-.29-2.93-.26-1.86-.37-2.79a21.34,21.34,0,0,0-.66-3.35c-.22-.77-.12-1.07.63-1.41a10.83,10.83,0,0,1,6.11-1.11,15.59,15.59,0,0,1,3.2.69,6.71,6.71,0,0,1,3.57,2.79,13.07,13.07,0,0,1,1.8,5.12c.14,1,.26,1.94.41,2.92A19.62,19.62,0,0,1,54.39,80a20.7,20.7,0,0,1-.25,2.94c-.2,1.52-.34,3-.55,4.55A8,8,0,0,1,53,89.86a2.21,2.21,0,0,0-.27,1.2,1.16,1.16,0,0,1-.39,1,.67.67,0,0,0-.27.44,11.82,11.82,0,0,1-.71,3,72,72,0,0,1-2.72,6.92,12.7,12.7,0,0,0-1,2.71,3.76,3.76,0,0,1-.85,1.76,1.43,1.43,0,0,0-.41.59c-.11.59-.36,1.13-.52,1.7a65.81,65.81,0,0,1-2.5,6.93c-.32.79-.75,1.53-1,2.36a3.52,3.52,0,0,0-.07,2.13,10.23,10.23,0,0,0,1.15,1.9c.05.1.18.1.29.13.46.1.9.22,1.19-.32,0-.06.15-.08.23-.13a1.34,1.34,0,0,0,.6-.82,4.09,4.09,0,0,1,.57-1.17,30.08,30.08,0,0,0,2.83-5.57c.37-1,.72-2,1.12-3,.25-.63.28-.62-.17-1.09s-.34-1.08.27-1.21a1.13,1.13,0,0,0,.93-1,4.29,4.29,0,0,1,.19-.5c.83-2,1.68-4,2.49-6a78.58,78.58,0,0,0,2.86-8.19,41.57,41.57,0,0,0,1-4.55c.21-1.33.42-2.67.54-4,.09-1,.24-2,.23-3.07,0-1.47.06-2.94-.09-4.41-.08-.76-.12-1.53-.2-2.29a34.12,34.12,0,0,0-.63-3.75,17.57,17.57,0,0,0-1.6-4.51,13,13,0,0,0-3-3.68,7.87,7.87,0,0,0-2.62-1.6c-1.12-.38-2.27-.68-3.41-1a3.18,3.18,0,0,0-1.36-.18,10.52,10.52,0,0,1-1.77.11,1,1,0,0,0-.9.47,2,2,0,0,1-1.88,1,1.83,1.83,0,0,0-1.2.47c-.49.43-.84.31-1-.32,0-.09,0-.18,0-.26a1,1,0,0,0-1.12-1,21,21,0,0,0-3.25.44.83.83,0,0,0-.5.29,8.63,8.63,0,0,1-1.4,1.09,53.63,53.63,0,0,0-5.75,4.17,31.31,31.31,0,0,0-3.87,3.94,26.83,26.83,0,0,0-3.57,5.75,24.87,24.87,0,0,0-1.63,4.72A16.42,16.42,0,0,0,17.29,86.87Z"/><path class="cls-1" d="M122.08,116.42h0c.2,0,.39,0,.59,0a.78.78,0,0,1,.89.76.81.81,0,0,1-.66.85c-.29.09-.59.15-.89.22-.88.21-1,.4-.93,1.27,0,.55.38.86,1,1a.92.92,0,0,0,.9-.64c.06-.11.08-.25.14-.36a.57.57,0,0,1,1,0,1.82,1.82,0,0,1,.13.37c.22.74.43,1.47.64,2.21.1.34.19.68.31,1a.54.54,0,0,0,.78.37,1.06,1.06,0,0,0,.85-1.39c-.13-.6-.32-1.18-.45-1.78a3.54,3.54,0,0,1-.18-1,.6.6,0,0,1,.3-.54.51.51,0,0,1,.61.08,3.39,3.39,0,0,0,.53.38,1.12,1.12,0,0,0,1.39-.67,1,1,0,0,0-.57-1.18,3,3,0,0,0-1.36-.11,1.4,1.4,0,0,1-1.85-1.16c0-.17-.07-.34-.12-.51a.94.94,0,0,0-1.22-.69l-.64.13a1.51,1.51,0,0,1-1.4-.39.76.76,0,0,0-1.11,0,.87.87,0,0,0-.3,1.06,1,1,0,0,0,.94.68C121.64,116.43,121.86,116.42,122.08,116.42Z"/><path class="cls-1" d="M108.54,119.57c0-.28,0-.45,0-.63a.63.63,0,0,0-.91-.6,1,1,0,0,0-.68.74,7.06,7.06,0,0,1-1.74,3.4,4,4,0,0,0-.72,3.9.93.93,0,0,0,.64.7,3.87,3.87,0,0,0,.9.17,7.7,7.7,0,0,0,2.56-.53,1.35,1.35,0,0,0,1-1.24,7.27,7.27,0,0,1,.17-1c.12-.48.38-.58.84-.39l.41.2a1,1,0,0,0,.83,0,.91.91,0,0,0,.61-.92,1.22,1.22,0,0,0-1-1.12,3.29,3.29,0,0,0-1.17.17,3.19,3.19,0,0,0-2.36,2.08c-.1.29-.19.59-.29.88a.6.6,0,0,1-.58.44.68.68,0,0,1-.71-.36,1.27,1.27,0,0,1-.15-.57,2.59,2.59,0,0,1,.5-1.61c.25-.38.55-.73.81-1.11A3.77,3.77,0,0,0,108.54,119.57Z"/><path class="cls-1" d="M94.14,128.87a2.32,2.32,0,0,0-.07-.46c-.12-.51-.23-1-.36-1.53a10.11,10.11,0,0,0-.83-2.69,1.85,1.85,0,0,0-1.58-1,1.91,1.91,0,0,1-1.08-.43,6.64,6.64,0,0,1-.71-.58,1.26,1.26,0,0,0-1.17-.29c-.55.11-.69.47-.33.89a1.33,1.33,0,0,1,.13,1.59,4.21,4.21,0,0,0-.36.91,4,4,0,0,0,0,1.43,23.9,23.9,0,0,0,.75,3.33.64.64,0,0,0,.79.52.78.78,0,0,0,.71-.8,2.86,2.86,0,0,0-.06-.65c-.24-1.22-.5-2.44-.69-3.67a1,1,0,0,1,1.13-1.2,1.13,1.13,0,0,1,.83.68,5.13,5.13,0,0,1,.51,1.42c.23.94.44,1.88.67,2.81a.79.79,0,0,0,.94.63A.8.8,0,0,0,94.14,128.87Z"/><path class="cls-1" d="M56.92,129.75a3,3,0,0,0-1.05.13,2.58,2.58,0,0,0-2,2.07,4.26,4.26,0,0,0,0,1.63c.15.75.31,1.5.46,2.25.12.56.44.83.89.73.63-.13.9-.51.78-1.07-.15-.73-.32-1.45-.46-2.18a4.9,4.9,0,0,1-.15-1.43,1.13,1.13,0,0,1,.92-1,1,1,0,0,1,1.15.68,3.45,3.45,0,0,1,.3.87c.09.45.17.9.27,1.35.22,1,.44,2,.67,2.94.12.5.43.75.81.7a.76.76,0,0,0,.76-.88,1.77,1.77,0,0,0,0-.46,32.38,32.38,0,0,0-.93-4.35C58.85,130.49,58.43,129.66,56.92,129.75Z"/><path class="cls-1" d="M63.24,132.07a4.6,4.6,0,0,1,.21-1.71,1.14,1.14,0,0,1,1.28-.88,7.06,7.06,0,0,1,.82.23.75.75,0,0,0,.94-.27,1.34,1.34,0,0,0,0-1.38.72.72,0,0,0-.88-.25,8.35,8.35,0,0,0-2.28.85,3.07,3.07,0,0,0-1.1.92,4.65,4.65,0,0,0-.7,2.37,17.19,17.19,0,0,0,.17,1.76,13.75,13.75,0,0,0,.4,2,1,1,0,0,0,1.06.79,4.55,4.55,0,0,0,1.73-.33,1.86,1.86,0,0,1,2.13.31.55.55,0,0,0,.78,0,1.24,1.24,0,0,0,.24-1.4c-.21-.43-.46-.54-1-.4l-2.1.53c-.74.18-1.13,0-1.32-.78A7.71,7.71,0,0,1,63.24,132.07Z"/><path class="cls-1" d="M115.84,116.69a5,5,0,0,0-1.65.25,3.6,3.6,0,0,0-.89.41,1.27,1.27,0,0,0-.45,1.82c.16.33.53.38.86.4s.5-.22.63-.49.12-.66.33-.93.27-.32.5-.24.49.16.48.46.13.77.15,1.17c0,.63.12.73.74.85a1.14,1.14,0,0,1,1,1,3.42,3.42,0,0,1,.06.78,17,17,0,0,0,.14,1.89.58.58,0,0,0,.26.44,1,1,0,0,0,1.45-.56c0-.22,0-.44.06-.66a2.3,2.3,0,0,0-.06-1.42,2.38,2.38,0,0,1-.13-.84q0-.66,0-1.32c0-.59,0-.63-.63-.65a1.07,1.07,0,0,1-1-.68c-.13-.32-.24-.66-.36-1a1,1,0,0,0-1-.71Z"/><path class="cls-1" d="M72.81,126.06a8.12,8.12,0,0,0-3.67,1.31,1.82,1.82,0,0,0-.38.45,3.84,3.84,0,0,0-.18,3.06.78.78,0,0,0,.91.58,3.58,3.58,0,0,0,.45-.09c.94-.19,1.4.1,1.62,1,.11.42.17.86.29,1.28a.85.85,0,1,0,1.66-.39,21.75,21.75,0,0,1-.38-2.26A1.1,1.1,0,0,0,71.66,130l-.78.15a.62.62,0,0,1-.72-.42,1.42,1.42,0,0,1,.23-1.64,4.16,4.16,0,0,1,.42-.42,1.09,1.09,0,0,1,1.49,0c.78.57,1.34.44,1.56-.38A1,1,0,0,0,72.81,126.06Z"/><path class="cls-1" d="M14.78,53.33a.26.26,0,0,0,.25-.17,19,19,0,0,1,2.06-3.82c1.21-2.06,2.57-4,3.95-6,1.06-1.5,2.23-2.93,3.3-4.43a36.63,36.63,0,0,1,3.87-4.38c.46-.47.85-1,1.33-1.46a82.76,82.76,0,0,1,6.23-5.46,78.48,78.48,0,0,1,8.83-6c2.52-1.47,5.11-2.84,7.76-4.07a38.87,38.87,0,0,1,5.87-2.49c1.73-.49,3.4-1.18,5.12-1.7a61.74,61.74,0,0,1,6.56-1.66c1.65-.32,3.3-.62,5-.89.84-.14,1.7-.21,2.54-.3.14,0,.27,0,.36-.13h6.07a3.86,3.86,0,0,0,1.46.24,40,40,0,0,1,4.85.83,2.69,2.69,0,0,1,.6.27,1.12,1.12,0,0,1,.6,1.16,1.38,1.38,0,0,1-.8,1.26,2,2,0,0,1-1.15.11c-1.46-.28-2.91-.58-4.39-.73-1.2-.13-2.4-.23-3.61-.26-1,0-2,0-3,0a23.27,23.27,0,0,0-3,.3c-1.26.15-2.5.4-3.75.62a78.17,78.17,0,0,0-15.86,4.68,76.54,76.54,0,0,0-7.41,3.43,24,24,0,0,0-3.49,2c-1.65,1.28-3.5,2.26-5.19,3.49-1.43,1-2.85,2.1-4.21,3.25a59.49,59.49,0,0,0-4.88,4.52c-1.44,1.53-2.83,3.11-4.15,4.75-2.06,2.54-3.94,5.2-5.8,7.89-.9,1.31-1.68,2.67-2.46,4a7.59,7.59,0,0,1-1.48,2.08,1,1,0,0,1-1.35,0c-.18-.16-.3-.4-.58-.39Z"/><path class="cls-1" d="M108.74,87.89a.22.22,0,0,0-.21.17,1.87,1.87,0,0,1-1.66,1.13,12.54,12.54,0,0,1-2,.17A15.53,15.53,0,0,1,98.61,88a13.2,13.2,0,0,1-4.7-4,12.5,12.5,0,0,1-2.3-5.87,18.68,18.68,0,0,1-.08-3.88,17.89,17.89,0,0,1,2.13-7.4,17.15,17.15,0,0,1,3.94-4.8,27.51,27.51,0,0,1,6.59-3.93,21,21,0,0,1,4.7-1.46c.37-.07.74,0,1.11-.12s.51.12.51.44.07.71.53.86a1.21,1.21,0,0,0,1.29-.19,2.43,2.43,0,0,0,.89-2.52,1.17,1.17,0,0,1,.54-1.37c.5-.32,1-.61,1.53-.9a9.51,9.51,0,0,0,1.63-1.1,2.81,2.81,0,0,1,3.09-.41A4.45,4.45,0,0,1,122.57,54c.43,1.13.82,2.27,1.18,3.42a1.69,1.69,0,0,0,2.12,1.36,9.46,9.46,0,0,1,2.76,0,3.45,3.45,0,0,0,.72,0,27.77,27.77,0,0,1,4.63.49,26.82,26.82,0,0,1,6,1.75,13.08,13.08,0,0,1,5,3.44,10.79,10.79,0,0,1,2.45,5,13.5,13.5,0,0,1,.18,4.44,16.87,16.87,0,0,1-.56,2.83,12.83,12.83,0,0,1-9.51,8.94,16.6,16.6,0,0,1-5.16.46A10.83,10.83,0,0,1,126,83.72a9.76,9.76,0,0,1-2.37-2.89,12.1,12.1,0,0,1-1.3-3.91c-.16-1-.2-2-.3-3s-.17-1.74-.28-2.61-.24-1.69-.37-2.53c-.18-1.21-.34-2.42-.55-3.63-.28-1.66-.63-3.3-1-4.93-.28-1.09-.59-2.16-.92-3.23s-.78-1.28-1.83-.83a9.55,9.55,0,0,0-3.63,2.55,4.28,4.28,0,0,0-.94,3.76,5.06,5.06,0,0,1,.19,1,2.22,2.22,0,0,1-.35,1.37c-.28.43-.23.64.21.85a2.27,2.27,0,0,1,1.2,2c.14.93.23,1.86.34,2.8l.33,2.8c.16,1.28.18,2.57.36,3.85a2.55,2.55,0,0,1,0,.39,55.5,55.5,0,0,1-.23,5.91c-.14,1.24-.29,2.48-.46,3.71s-.4,2.19-.63,3.28a49.93,49.93,0,0,1-1.73,6.14c-.64,1.8-1.35,3.56-2.14,5.31a60.28,60.28,0,0,1-4.09,7.43,29.14,29.14,0,0,1-2.63,3.53c-.64.73-1.33,1.4-2,2.1-.13.12-.25.25-.39.36-.88.67-1.41.61-2.15-.23A7.52,7.52,0,0,1,97,112.8a1.28,1.28,0,0,1,.32-1.45c.33-.32.66-.66,1-1a28.53,28.53,0,0,0,4.26-5.58,57.73,57.73,0,0,0,3.22-6.56c1-2.25,1.9-4.53,2.7-6.85A5.31,5.31,0,0,0,108.74,87.89Zm1.37-7.79a11.4,11.4,0,0,0,0-1.85c-.2-1.17,0-2.36-.22-3.54-.12-.59-.1-1.22-.17-1.82-.11-1-.27-2-.36-3.06a36,36,0,0,0-.62-3.88,26.85,26.85,0,0,1-.75-3.19c-.07-1-.84-1.21-1.58-.61l-.1.09a3.46,3.46,0,0,1-1.39.86,11.67,11.67,0,0,0-1.93,1,18.84,18.84,0,0,0-4,3.31,13.81,13.81,0,0,0-2.34,3.48,9.48,9.48,0,0,0-.79,3,11.21,11.21,0,0,0,.79,5,7.17,7.17,0,0,0,2.72,3.47,13.18,13.18,0,0,0,3.81,1.6,3.09,3.09,0,0,0,2.74-.48,1.66,1.66,0,0,1,.35-.18.79.79,0,0,1,1.19.54c.13.35.24.7.35,1.06a7,7,0,0,0,.88,1.61.48.48,0,0,0,.5.23c.24,0,.27-.2.32-.36a1.07,1.07,0,0,0,.07-.39,6.29,6.29,0,0,1,.18-1.43A24.47,24.47,0,0,0,110.11,80.1Zm18-15.82h-1.3c-.79,0-1,.25-1,1a3,3,0,0,0,.06.52,31.46,31.46,0,0,1,.58,4.09c.16,1.63.23,3.27.41,4.9a11.75,11.75,0,0,0,.55,2.62,4.48,4.48,0,0,0,3.43,3.12,11.3,11.3,0,0,0,4.18.11A8.79,8.79,0,0,0,140.28,78a7.46,7.46,0,0,0,1.9-7,6.27,6.27,0,0,0-1.77-3.18,15.49,15.49,0,0,0-1.47-1.21,7.56,7.56,0,0,0-3.45-1.55,29.08,29.08,0,0,1-3.35-.63,8.25,8.25,0,0,0-2.2-.24C129.31,64.23,128.67,64.23,128.15,64.28Zm2.73-2.08a1,1,0,0,0-.62.89c0,.1,0,.18.06.23a.26.26,0,0,0,.25,0C131,63.05,131,62.79,130.88,62.2Z"/><path class="cls-1" d="M82.78,156c-.86,0-1.72.06-2.57,0-1.65-.15-3.3,0-4.94-.13a36.57,36.57,0,0,1-6.75-.94A107.72,107.72,0,0,1,58,151.71a67,67,0,0,1-7.12-3.11,59.1,59.1,0,0,1-6.85-4.18l-1.42-.95c-.13-.08-.31-.15-.37-.27a.92.92,0,0,0-.86-.56c-.08,0-.19-.12-.25-.2a12.77,12.77,0,0,0-2.69-2.5,38.63,38.63,0,0,1-4.11-4c-.6-.69-1.23-1.37-1.8-2.09a.54.54,0,0,0-.5-.28c-.36,0-.48-.11-.53-.48a2.43,2.43,0,0,0-.71-1.38,6,6,0,0,1-.72-.94,1.2,1.2,0,0,0-1.19-.66c-.42,0-.55-.1-.66-.56a11.12,11.12,0,0,0-.74-2.38A8.54,8.54,0,0,0,25.07,124a7.31,7.31,0,0,1-1.74-2.21,34.39,34.39,0,0,1-2.67-6.36,3.1,3.1,0,0,1,.84-2.58,1.69,1.69,0,0,1,2.5.54,1.29,1.29,0,0,1,.18.35,2.07,2.07,0,0,0,1,1.32c.25.14.32.41.44.65A63.79,63.79,0,0,0,30,123.17a61.29,61.29,0,0,0,3.73,4.93,69.3,69.3,0,0,0,5.17,5.53A59.91,59.91,0,0,0,48.33,141,62.09,62.09,0,0,0,63,147.73a46.57,46.57,0,0,0,6.56,1.63c1.07.17,2,.7,3.11.77.54,0,1.08.18,1.63.2,1.55,0,3.11.19,4.67.16,1.4,0,2.8,0,4.2,0s2.62-.15,3.93-.24a53.26,53.26,0,0,0,5.33-.71,45.09,45.09,0,0,0,4.73-1.11c1.54-.42,3.07-.9,4.58-1.43a77.38,77.38,0,0,0,7.32-3,64.25,64.25,0,0,0,8.36-4.72,57,57,0,0,0,5-3.74,59.89,59.89,0,0,0,5.54-5.26,64.29,64.29,0,0,0,7.25-9.5c.67-1.06,1.28-2.16,1.87-3.26a56.4,56.4,0,0,0,2.71-5.85c.61-1.5,1.1-3.05,1.61-4.6a7.69,7.69,0,0,1,.68-1.56,2.1,2.1,0,0,1,1.94-1.12,3.72,3.72,0,0,1,2.36.66,2.82,2.82,0,0,1,1.23,2.28,7.4,7.4,0,0,1-.52,2.69,52,52,0,0,1-4.05,9.78c-1.15,2.12-2.39,4.2-3.69,6.23-1.07,1.66-2.22,3.26-3.42,4.83-.59.76-1.25,1.47-1.87,2.21-1,1.13-2,2.21-3.07,3.26a64.75,64.75,0,0,1-7.44,6.37,74.11,74.11,0,0,1-6.24,4.14,53.1,53.1,0,0,1-5.61,2.77,71.68,71.68,0,0,1-7,2.63,86.51,86.51,0,0,1-9.09,2.33c-1.85.37-3.7.71-5.55,1-1,.15-2.09.24-3.14.33C85.54,156,84.16,156,82.78,156Z"/><path class="cls-1" d="M80.31,18.62a22.62,22.62,0,0,1,3.71.16,49.1,49.1,0,0,1,5.39.72,61.94,61.94,0,0,1,9.08,2.4c2.26.78,4.46,1.71,6.64,2.71,1.64.75,3.24,1.58,4.82,2.45q2.68,1.47,5.32,3c2.43,1.42,4.82,2.88,7.14,4.47a57,57,0,0,1,4.79,3.69c1.51,1.28,3,2.63,4.39,4a2.86,2.86,0,0,1,.32,3.72,4.58,4.58,0,0,1-1.42,1.24,2.61,2.61,0,0,1-3-.48L126,45.21a57.56,57.56,0,0,0-7.38-6.13c-1.37-1-2.72-1.93-4.11-2.85-2.36-1.56-4.78-3-7.28-4.38a69.84,69.84,0,0,0-9-4,60.77,60.77,0,0,0-9-2.49c-1.61-.32-3.23-.55-4.85-.74a12.76,12.76,0,0,0-2.69-.16,17,17,0,0,1-1.9-.14c-1.35,0-2.69.08-4,.17a49.52,49.52,0,0,0-10.37,1.87,63.34,63.34,0,0,0-7.91,2.88c-1.26.56-2.55,1.08-3.78,1.71a54.2,54.2,0,0,0-7.58,4.62c-1.46,1.06-2.89,2.14-4.25,3.31A52.5,52.5,0,0,0,38,42.45q-1.91,2-3.66,4.14a66.65,66.65,0,0,0-4.74,6.47C29,54,28.38,55,27.77,56a2.81,2.81,0,0,1-2.17,1.35,2.28,2.28,0,0,1-2.52-2,3.85,3.85,0,0,1,.57-2.19c1.4-2.3,2.9-4.55,4.46-6.75.87-1.21,1.78-2.39,2.71-3.56.6-.75,1.26-1.45,1.88-2.19,1.32-1.57,2.82-3,4.28-4.39a47.65,47.65,0,0,1,5-4.16c1.48-1.09,3.09-2,4.54-3.15a.65.65,0,0,1,.35-.15.9.9,0,0,0,.55-.22,21.44,21.44,0,0,1,1.82-1.15,4.55,4.55,0,0,1,1.51-.75,2.27,2.27,0,0,0,.89-.41A15.26,15.26,0,0,1,55,24.59c1.83-.79,3.67-1.55,5.54-2.25a57.42,57.42,0,0,1,8.12-2.43c1.31-.29,2.62-.52,3.94-.73,1-.16,2-.25,3-.33C77.13,18.74,78.63,18.59,80.31,18.62Z"/><path class="cls-1" d="M17.29,86.87a16.42,16.42,0,0,1,.56-5.23,24.87,24.87,0,0,1,1.63-4.72,26.83,26.83,0,0,1,3.57-5.75,31.31,31.31,0,0,1,3.87-3.94,53.63,53.63,0,0,1,5.75-4.17A8.63,8.63,0,0,0,34.07,62a.83.83,0,0,1,.5-.29,21,21,0,0,1,3.25-.44,1,1,0,0,1,1.12,1c0,.08,0,.17,0,.26.18.63.53.75,1,.32a1.83,1.83,0,0,1,1.2-.47,2,2,0,0,0,1.88-1,1,1,0,0,1,.9-.47,10.52,10.52,0,0,0,1.77-.11,3.18,3.18,0,0,1,1.36.18c1.14.29,2.29.59,3.41,1a7.87,7.87,0,0,1,2.62,1.6,13,13,0,0,1,3,3.68,17.57,17.57,0,0,1,1.6,4.51,34.12,34.12,0,0,1,.63,3.75c.08.76.12,1.53.2,2.29.15,1.47.07,2.94.09,4.41,0,1-.14,2-.23,3.07-.12,1.35-.33,2.69-.54,4a41.57,41.57,0,0,1-1,4.55A78.58,78.58,0,0,1,54,102c-.81,2-1.66,4-2.49,6a4.29,4.29,0,0,0-.19.5,1.13,1.13,0,0,1-.93,1c-.61.13-.72.74-.27,1.21s.42.46.17,1.09c-.4,1-.75,2-1.12,3a30.08,30.08,0,0,1-2.83,5.57,4.09,4.09,0,0,0-.57,1.17,1.34,1.34,0,0,1-.6.82c-.08,0-.19.07-.23.13-.29.54-.73.42-1.19.32-.11,0-.24,0-.29-.13a10.23,10.23,0,0,1-1.15-1.9,3.52,3.52,0,0,1,.07-2.13c.25-.83.68-1.57,1-2.36a65.81,65.81,0,0,0,2.5-6.93c.16-.57.41-1.11.52-1.7a1.43,1.43,0,0,1,.41-.59,3.76,3.76,0,0,0,.85-1.76,12.7,12.7,0,0,1,1-2.71,72,72,0,0,0,2.72-6.92,11.82,11.82,0,0,0,.71-3,.67.67,0,0,1,.27-.44,1.16,1.16,0,0,0,.39-1,2.21,2.21,0,0,1,.27-1.2,8,8,0,0,0,.64-2.41c.21-1.51.35-3,.55-4.55A20.7,20.7,0,0,0,54.39,80a19.62,19.62,0,0,0-.25-2.87c-.15-1-.27-2-.41-2.92a13.07,13.07,0,0,0-1.8-5.12,6.71,6.71,0,0,0-3.57-2.79,15.59,15.59,0,0,0-3.2-.69,10.83,10.83,0,0,0-6.11,1.11c-.75.34-.85.64-.63,1.41a21.34,21.34,0,0,1,.66,3.35c.11.93.26,1.86.37,2.79s.17,2,.29,2.93.32,2.08.46,3.12.22,1.82.35,2.73a21.58,21.58,0,0,0,.22,2.54.69.69,0,0,1,0,.2c0,1.34.22,2.67.15,4a2.52,2.52,0,0,1-.24,1.14c-.3.57-.25.73.26,1.11a1.18,1.18,0,0,1,.41.57,9.07,9.07,0,0,1,.29,1.14.7.7,0,0,1-.58.92,5,5,0,0,1-1.44.13,1.31,1.31,0,0,0-1.31.59.41.41,0,0,1-.07.11c-.28.28-.49.25-.65-.11a9.78,9.78,0,0,1-.76-2.31c-.14-.81-.22-1.64-.3-2.47-.14-1.37-.2-2.74-.33-4.12-.08-.8-.13-1.61-.19-2.42a25.28,25.28,0,0,0-.22-2.61c-.1-.61-.07-1.22-.12-1.84s-.14-1.48-.19-2.22c-.07-1-.17-2-.33-3-.13-.84-.2-1.69-.31-2.53-.18-1.28-.34-2.56-.56-3.83a3.69,3.69,0,0,0-.43-1c-.11-.21-.3-.23-.5-.08a.54.54,0,0,0-.22.39,2.06,2.06,0,0,1-1.06,1.57,35.45,35.45,0,0,0-3.36,2.64,19.87,19.87,0,0,0-6.55,10.86,18.74,18.74,0,0,0-.65,5.06,15.64,15.64,0,0,0,1.13,5.77c.71,1.74,1.44,3.49,2.28,5.17a1.51,1.51,0,0,1-.19,2,5.06,5.06,0,0,0-1.25,2.21c-.12.4-.32.44-.63.18a5.18,5.18,0,0,1-1.58-2c-.68-1.57-1.51-3.08-2.22-4.63A19.24,19.24,0,0,1,17.53,91,22.51,22.51,0,0,1,17.29,86.87Zm32.3,20.22a2.31,2.31,0,0,0-.62.63,17.49,17.49,0,0,0-1.15,2.44c-.23.47-.21.73,0,.82s.47,0,.72-.43l.15-.29a13.17,13.17,0,0,0,.76-2.1A2.06,2.06,0,0,0,49.59,107.09ZM35,64.7c0-.37-.14-.56-.42-.54s-.37.25-.37.51.2.64.43.65S35,65.06,35,64.7ZM21.11,94c0-.36-.14-.54-.41-.53s-.37.2-.37.44.24.62.48.58S21.11,94.22,21.11,94Z"/><path class="cls-1" d="M61.5,96.46a34.68,34.68,0,0,1,1-7.9c.29-1,.62-1.92,1-2.86a2.44,2.44,0,0,1,.45-.65q1.78-2.4,3.75-4.65c1.16-1.33,2.45-2.53,3.68-3.78.29-.3.64-.53.94-.82a1.23,1.23,0,0,0,.19-1.87c-.74-1-1.52-2-2.27-3.06a20.5,20.5,0,0,1-2.38-3.54,12,12,0,0,1-1-3.72c-.12-1.18-.2-2.35-.33-3.53-.08-.71-.13-1.44-.19-2.16a23.3,23.3,0,0,0-.21-2.35,4.57,4.57,0,0,1,0-1.11c0-.54.28-.72.78-.58a3.29,3.29,0,0,1,.68.26,2.79,2.79,0,0,0,2.41.12c.44-.17.42-.13.49.34.18,1.19.15,2.4.37,3.59a5.15,5.15,0,0,1,0,.79A13.43,13.43,0,0,0,72,64.44a26.41,26.41,0,0,0,3.4,5.38A54.75,54.75,0,0,0,80.18,75c1.9,1.88,3.91,3.67,5.75,5.62A37.2,37.2,0,0,1,88.86,84a27.67,27.67,0,0,1,2.93,4.76,15.51,15.51,0,0,1,1.32,4.38c.11.68.08,1.35.21,2a8.62,8.62,0,0,1-.14,2.42,15.7,15.7,0,0,1-4,8.82A18.8,18.8,0,0,0,87,108.68a.61.61,0,0,1-.26.19c-1.26.41-2.4,1.1-3.63,1.56a3.85,3.85,0,0,1-1.61.31.87.87,0,0,0-.45.07,2.77,2.77,0,0,1-1.86.13,4.59,4.59,0,0,0-1.77,0,4.15,4.15,0,0,1-1.69-.08,36.52,36.52,0,0,1-7.88-2.51A11.6,11.6,0,0,1,64,105.76,8.71,8.71,0,0,1,61.77,101a22.16,22.16,0,0,1-.11-2.82A14.89,14.89,0,0,1,61.5,96.46ZM66,97v2.35a5.2,5.2,0,0,0,.22,1.42,4.12,4.12,0,0,0,2.15,2.54,24.42,24.42,0,0,0,6.76,2.53,14.38,14.38,0,0,0,5.35.17,8.26,8.26,0,0,0,3.23-1.26,11,11,0,0,0,2.48-2.34,10.74,10.74,0,0,0,1.84-3.47,10.1,10.1,0,0,0,.3-4.67,13,13,0,0,0-1.77-4.72,33.5,33.5,0,0,0-4.73-5.88c-2.18-2.26-4.44-4.46-6.66-6.68a1.16,1.16,0,0,0-.93-.41c-.19,0-.36.06-.43.26A12.07,12.07,0,0,0,73,79a3.17,3.17,0,0,1-.79,1.57c-.7.89-1.43,1.77-2.07,2.71s-1,1.79-1.54,2.68a25.13,25.13,0,0,0-2.28,5.24,9.09,9.09,0,0,0-.4,2.91C66,95.13,66,96.14,66,97Zm9-23.21a1.83,1.83,0,0,0-1.37-1.61A2.64,2.64,0,0,0,75.05,73.76Z"/><path class="cls-1" d="M122.08,116.42c-.22,0-.44,0-.66,0a1,1,0,0,1-.94-.68.87.87,0,0,1,.3-1.06.76.76,0,0,1,1.11,0,1.51,1.51,0,0,0,1.4.39l.64-.13a.94.94,0,0,1,1.22.69c0,.17.08.34.12.51a1.4,1.4,0,0,0,1.85,1.16,3,3,0,0,1,1.36.11,1,1,0,0,1,.57,1.18,1.12,1.12,0,0,1-1.39.67,3.39,3.39,0,0,1-.53-.38.51.51,0,0,0-.61-.08.6.6,0,0,0-.3.54,3.54,3.54,0,0,0,.18,1c.13.6.32,1.18.45,1.78a1.06,1.06,0,0,1-.85,1.39.54.54,0,0,1-.78-.37c-.12-.32-.21-.66-.31-1-.21-.74-.42-1.47-.64-2.21a1.82,1.82,0,0,0-.13-.37.57.57,0,0,0-1,0c-.06.11-.08.25-.14.36a.92.92,0,0,1-.9.64c-.63-.1-1-.41-1-1-.08-.87,0-1.06.93-1.27.3-.07.6-.13.89-.22a.81.81,0,0,0,.66-.85.78.78,0,0,0-.89-.76c-.2,0-.39,0-.59,0Z"/><path class="cls-1" d="M99.53,122.69a2.84,2.84,0,0,0,1.33,0,2.36,2.36,0,0,1,.65-.07.86.86,0,0,1,.83,1.3,2.59,2.59,0,0,1-.26.46c-.31.41-.48.43-.94.17l-.41-.22c-.22-.11-.46-.22-.66,0a.69.69,0,0,0-.18.72c.2.73.38,1.48.53,2.23a.87.87,0,0,1-.94,1.16c-.43,0-.56-.08-.7-.56-.2-.69-.36-1.39-.54-2.09-.06-.22-.1-.43-.16-.64a.86.86,0,0,0-.36-.46c-.34-.26-.57-.22-.82.14-.06.09-.09.2-.14.29a.86.86,0,0,1-1,.54c-.43,0-.55-.18-.69-.74s0-.86.57-1.11c.35-.14.72-.21,1.06-.35s.43-.31.12-.62a1.28,1.28,0,0,0-.26-.2,1.62,1.62,0,0,1-.51-2.15,1.09,1.09,0,0,1,.74-.61,4.86,4.86,0,0,1,2.07-.28,1.8,1.8,0,0,1,1.4,1,1.12,1.12,0,0,1-.12,1.12C100,122,99.77,122.3,99.53,122.69Zm-1.41-1c.33,0,.49-.13.5-.39a.54.54,0,0,0-.61-.53.39.39,0,0,0-.44.44C97.57,121.57,97.73,121.71,98.12,121.7Z"/><path class="cls-1" d="M108.54,119.57a3.77,3.77,0,0,1-1.07,2.58c-.26.38-.56.73-.81,1.11a2.59,2.59,0,0,0-.5,1.61,1.27,1.27,0,0,0,.15.57.68.68,0,0,0,.71.36.6.6,0,0,0,.58-.44c.1-.29.19-.59.29-.88a3.19,3.19,0,0,1,2.36-2.08,3.29,3.29,0,0,1,1.17-.17,1.22,1.22,0,0,1,1,1.12.91.91,0,0,1-.61.92,1,1,0,0,1-.83,0l-.41-.2c-.46-.19-.72-.09-.84.39a7.27,7.27,0,0,0-.17,1,1.35,1.35,0,0,1-1,1.24,7.7,7.7,0,0,1-2.56.53,3.87,3.87,0,0,1-.9-.17.93.93,0,0,1-.64-.7,4,4,0,0,1,.72-3.9,7.06,7.06,0,0,0,1.74-3.4,1,1,0,0,1,.68-.74.63.63,0,0,1,.91.6C108.55,119.12,108.54,119.29,108.54,119.57Z"/><path class="cls-1" d="M94.14,128.87a.8.8,0,0,1-.77.88.79.79,0,0,1-.94-.63c-.23-.93-.44-1.87-.67-2.81a5.13,5.13,0,0,0-.51-1.42,1.13,1.13,0,0,0-.83-.68,1,1,0,0,0-1.13,1.2c.19,1.23.45,2.45.69,3.67a2.86,2.86,0,0,1,.06.65.78.78,0,0,1-.71.8.64.64,0,0,1-.79-.52,23.9,23.9,0,0,1-.75-3.33,4,4,0,0,1,0-1.43,4.21,4.21,0,0,1,.36-.91,1.33,1.33,0,0,0-.13-1.59c-.36-.42-.22-.78.33-.89a1.26,1.26,0,0,1,1.17.29,6.64,6.64,0,0,0,.71.58,1.91,1.91,0,0,0,1.08.43,1.85,1.85,0,0,1,1.58,1,10.11,10.11,0,0,1,.83,2.69c.13.51.24,1,.36,1.53A2.32,2.32,0,0,1,94.14,128.87Z"/><path class="cls-1" d="M79.5,130.6a2.78,2.78,0,0,1,.67-2.14A9.81,9.81,0,0,0,82,124.78a2.17,2.17,0,0,1,.24-.54.72.72,0,0,1,.94-.4c.39.1.52.27.52.78a4.93,4.93,0,0,1-.94,2.56c-.27.42-.61.81-.92,1.2a4,4,0,0,0-.74,1.6,1.27,1.27,0,0,0,.12,1,.53.53,0,0,0,1,0,1.7,1.7,0,0,0,.18-.62,2.49,2.49,0,0,1,3.49-1.72,1.56,1.56,0,0,1,.72,1.64,1.29,1.29,0,0,1-.91,1.17,15.12,15.12,0,0,1-4,.91,6.16,6.16,0,0,1-1.05.14,1,1,0,0,1-1-.77,3.14,3.14,0,0,1-.12-.51C79.48,131,79.5,130.77,79.5,130.6Zm5,.21c.44,0,.68-.21.68-.61a.66.66,0,0,0-1.32,0A.58.58,0,0,0,84.48,130.81Z"/><path class="cls-1" d="M56.92,129.75c1.51-.09,1.93.74,2.34,1.93a32.38,32.38,0,0,1,.93,4.35,1.77,1.77,0,0,1,0,.46.76.76,0,0,1-.76.88c-.38,0-.69-.2-.81-.7-.23-1-.45-2-.67-2.94-.1-.45-.18-.9-.27-1.35a3.45,3.45,0,0,0-.3-.87,1,1,0,0,0-1.15-.68,1.13,1.13,0,0,0-.92,1,4.9,4.9,0,0,0,.15,1.43c.14.73.31,1.45.46,2.18.12.56-.15.94-.78,1.07-.45.1-.77-.17-.89-.73-.15-.75-.31-1.5-.46-2.25a4.26,4.26,0,0,1,0-1.63,2.58,2.58,0,0,1,2-2.07A3,3,0,0,1,56.92,129.75Z"/><path class="cls-1" d="M63.24,132.07a7.71,7.71,0,0,0,.31,2.37c.19.74.58,1,1.32.78l2.1-.53c.59-.14.84,0,1,.4a1.24,1.24,0,0,1-.24,1.4.55.55,0,0,1-.78,0,1.86,1.86,0,0,0-2.13-.31,4.55,4.55,0,0,1-1.73.33,1,1,0,0,1-1.06-.79,13.75,13.75,0,0,1-.4-2,17.19,17.19,0,0,1-.17-1.76,4.65,4.65,0,0,1,.7-2.37,3.07,3.07,0,0,1,1.1-.92,8.35,8.35,0,0,1,2.28-.85.72.72,0,0,1,.88.25,1.34,1.34,0,0,1,0,1.38.75.75,0,0,1-.94.27,7.06,7.06,0,0,0-.82-.23,1.14,1.14,0,0,0-1.28.88A4.6,4.6,0,0,0,63.24,132.07Z"/><path class="cls-1" d="M115.84,116.69h.49a1,1,0,0,1,1,.71c.12.33.23.67.36,1a1.07,1.07,0,0,0,1,.68c.6,0,.62.06.63.65q0,.66,0,1.32a2.38,2.38,0,0,0,.13.84,2.3,2.3,0,0,1,.06,1.42c-.06.22,0,.44-.06.66a1,1,0,0,1-1.45.56.58.58,0,0,1-.26-.44,17,17,0,0,1-.14-1.89,3.42,3.42,0,0,0-.06-.78,1.14,1.14,0,0,0-1-1c-.62-.12-.71-.22-.74-.85,0-.4-.16-.77-.15-1.17s-.25-.39-.48-.46-.37.09-.5.24-.18.63-.33.93-.31.5-.63.49-.7-.07-.86-.4a1.27,1.27,0,0,1,.45-1.82,3.6,3.6,0,0,1,.89-.41A5,5,0,0,1,115.84,116.69Z"/><path class="cls-1" d="M72.81,126.06a1,1,0,0,1,1,1.2c-.22.82-.78,1-1.56.38a1.09,1.09,0,0,0-1.49,0,4.16,4.16,0,0,0-.42.42,1.42,1.42,0,0,0-.23,1.64.62.62,0,0,0,.72.42l.78-.15a1.1,1.1,0,0,1,1.47,1.05,21.75,21.75,0,0,0,.38,2.26.85.85,0,1,1-1.66.39c-.12-.42-.18-.86-.29-1.28-.22-.95-.68-1.24-1.62-1a3.58,3.58,0,0,1-.45.09.78.78,0,0,1-.91-.58,3.84,3.84,0,0,1,.18-3.06,1.82,1.82,0,0,1,.38-.45A8.12,8.12,0,0,1,72.81,126.06Z"/></svg>